# xmcd
# Copyright (C) 1995-1998 Ti Kan
#
# Track frame offsets:
#       150
#       18882
#       38559
#       57792
#       77024
#       95655
#
# Disc length: 1585 seconds
#
# Revision: 0
# Processed by: cddbd v1.4b42PL1 Copyright (c) Steve Scherf et al.
# Submitted via: CD-Transfer v1.0
#
DISCID=3a062f06
DTITLE=The Slug - Say You'll Be There
DYEAR=1996
DGENRE=
TTITLE0=Say You'll Be There
TTITLE1=Say You'll Be There (D.A.B. Remix)
TTITLE2=Say You'll Be There (Street-Version)
TTITLE3=Say You'll Be There (G and B Remix)
TTITLE4=Say You'll Be There (Instrumental)
TTITLE5=A Human Like You And Me
EXTD=
EXTT0=
EXTT1=
EXTT2=
EXTT3=
EXTT4=
EXTT5=
PLAYORDER=
